<svg width="24" height="24" viewBox="0 0 24 24" fill="none" xmlns="http://www.w3.org/2000/svg">
<path d="M19.3211 5.562C19.1692 5.48345 19.0213 5.39734 18.8781 5.304C18.4617 5.02872 18.08 4.7044 17.7411 4.338C16.8921 3.367 16.5751 2.382 16.4591 1.693H16.4631C16.3661 1.12 16.4061 0.75 16.4131 0.75H12.5481V15.693C12.5481 15.893 12.5481 16.092 12.5401 16.288C12.5401 16.312 12.5371 16.334 12.5361 16.361C12.5361 16.371 12.5361 16.383 12.5331 16.394V16.403C12.4925 16.939 12.3208 17.4569 12.0331 17.9109C11.7453 18.365 11.3504 18.7414 10.8831 19.007C10.3955 19.2844 9.84403 19.4298 9.28307 19.429C7.48307 19.429 6.02307 17.961 6.02307 16.148C6.02307 14.334 7.48307 12.866 9.28307 12.866C9.62407 12.866 9.96307 12.92 10.2871 13.026L10.2921 9.09C9.30809 8.96305 8.30847 9.04147 7.35631 9.3203C6.40416 9.59913 5.52014 10.0723 4.76007 10.71C4.09393 11.2885 3.53386 11.9789 3.10507 12.75C2.94207 13.031 2.32607 14.162 2.25207 15.996C2.20507 17.036 2.51807 18.116 2.66707 18.561V18.571C2.76007 18.833 3.12407 19.729 3.71607 20.484C4.19347 21.09 4.75752 21.6224 5.39007 22.064V22.054L5.39907 22.064C7.26907 23.334 9.34407 23.251 9.34407 23.251C9.70307 23.236 10.9061 23.251 12.2721 22.604C13.7871 21.886 14.6491 20.817 14.6491 20.817C15.2002 20.1781 15.6385 19.45 15.9451 18.664C16.2951 17.744 16.4111 16.642 16.4111 16.202V8.273C16.4581 8.301 17.0831 8.714 17.0831 8.714C17.0831 8.714 17.9831 9.291 19.3861 9.666C20.3921 9.933 21.7491 9.99 21.7491 9.99V6.153C21.2741 6.205 20.3091 6.055 19.3201 5.563L19.3211 5.562Z" fill="#5F504D"/>
</svg>
