<svg width="184" height="49" viewBox="0 0 184 49" fill="none" xmlns="http://www.w3.org/2000/svg">
<g clip-path="url(#clip0_3127:27021)">
<path d="M92.3049 0C92.3049 0 0.690224 1.11284 0.248955 1.11284C-0.0835952 1.11284 -0.0835952 1.73376 0.252632 1.73376H183.217C183.552 1.73376 183.552 1.11284 183.217 1.11284C182.735 1.11284 92.3049 0 92.3049 0Z" fill="#CE0E2D"/>
<path d="M91.1626 33.4726C91.1626 33.4726 182.777 32.3597 183.219 32.3597C183.552 32.3597 183.552 31.7397 183.215 31.7397H0.252681C-0.0835761 31.7397 -0.0835761 32.3597 0.252681 32.3597C0.733572 32.3597 91.1626 33.4726 91.1626 33.4726Z" fill="#CE0E2D"/>
<path d="M3.91654 11.6403C3.91654 8.54136 3.85481 8.2346 2.56326 8.04851L1.73876 7.92598C1.46057 7.77029 1.39699 6.85092 1.85852 6.82329C4.19382 6.67036 6.43423 6.54599 9.50374 6.54599C12.4471 6.54599 14.412 6.88317 15.7681 7.68278C17.0827 8.47687 17.886 9.7675 17.886 11.5805C17.886 14.1562 15.7045 15.1705 14.7464 15.4155C14.4406 15.4791 14.1393 15.6034 14.1393 15.7564C14.1393 15.8466 14.2895 15.9388 14.5705 16.0005C16.9915 16.521 19.0504 18.1175 19.0799 21.0958C19.1121 23.9184 17.4207 25.5803 15.4871 26.2546C13.559 26.9299 11.2513 27.0174 9.38216 27.0174C8.27852 27.0174 7.10949 26.8976 6.21684 26.8976C4.71618 26.8976 3.21089 26.9299 1.46056 26.9879C1.21367 26.8083 1.21367 26.005 1.46056 25.9175L2.34954 25.7323C3.73137 25.4559 3.91654 25.2385 3.91654 22.4785V11.6403V11.6403ZM8.1514 14.6168C8.1514 15.4155 8.18088 15.4791 9.78105 15.4791C12.4203 15.4791 13.4024 13.7895 13.4024 11.9471C13.4024 9.27649 11.7451 7.95822 9.62535 7.95822C8.18088 7.95822 8.1514 8.2005 8.1514 9.55653V14.6168V14.6168ZM8.1514 21.7102C8.1514 24.1063 8.45817 25.6033 10.8524 25.6033C13.1269 25.6033 14.3171 23.8613 14.3171 21.3722C14.3171 18.6997 12.7852 16.8333 9.84461 16.8333C8.1514 16.8333 8.1514 16.86 8.1514 18.0871V21.7102V21.7102Z" fill="#CE0E2D"/>
<path d="M22.0453 11.0573C22.0453 8.2034 21.8648 8.02194 20.4802 7.7428L19.7156 7.5899C19.4714 7.40564 19.4364 6.72945 19.7745 6.54616C21.2475 6.60511 22.7869 6.63826 24.2553 6.63826C25.7624 6.63826 27.265 6.60511 28.7389 6.54616C28.984 6.72945 28.984 7.40564 28.7389 7.5899L28.0038 7.71424C26.6229 7.95838 26.4359 8.20342 26.4359 11.0574V18.148C26.4359 21.7389 26.8375 25.7011 31.5026 25.7011C35.4325 25.7011 36.6274 22.2613 36.6274 18.0578V14.3434C36.6274 11.8561 36.503 9.52353 36.1695 8.72759C35.8895 8.08551 35.2096 7.89296 34.3897 7.7428L33.5597 7.5899C33.3156 7.343 33.3764 6.72945 33.5597 6.54616C35.2096 6.60511 36.4099 6.63826 37.6711 6.63826C38.8051 6.63826 39.9447 6.60511 41.11 6.54616C41.2961 6.72945 41.3569 7.343 41.11 7.5899L40.5564 7.71424C39.7586 7.89296 39.1727 8.08551 38.8991 8.72759C38.5628 9.52353 38.4394 11.8561 38.4394 14.3434V17.7795C38.4394 20.6657 38.1575 23.3069 36.4707 25.1779C35.123 26.6178 32.8835 27.3879 30.3962 27.3879C28.0618 27.3879 25.9752 27.0175 24.3207 25.6698C22.7206 24.3469 22.0453 22.077 22.0453 18.7293V11.0573H22.0453Z" fill="#CE0E2D"/>
<path d="M44.0893 11.6146C44.0893 8.54143 44.0303 8.20334 42.7424 8.02186L41.9152 7.89288C41.6029 7.74272 41.6029 6.97165 41.9732 6.82333C44.2781 6.66856 46.6696 6.54604 49.5862 6.54604C52.1988 6.54604 54.4318 6.94308 55.6082 7.65427C57.3816 8.69157 58.3056 10.2263 58.3056 12.1931C58.3056 14.9282 56.464 16.0927 55.05 16.7974C54.7441 16.9494 54.7441 17.1327 54.8998 17.4727C56.9182 21.5887 58.1812 23.8871 59.6598 25.1465C60.4502 25.7922 61.2498 25.9774 61.7141 26.005C61.9877 26.1607 61.9877 26.6176 61.832 26.8083C61.3382 27.0175 60.3627 27.082 59.4083 27.082C56.5847 27.082 54.804 26.0732 53.4572 23.8641C52.4742 22.2317 51.7695 20.7274 51.0583 19.1005C50.6944 18.2732 50.1997 18.0254 49.4324 18.0254C48.3564 18.0254 48.2974 18.0871 48.2974 18.6998V22.4786C48.2974 25.3031 48.4835 25.5168 49.8653 25.7609L50.6944 25.9175C50.9045 26.0732 50.9045 26.8083 50.6944 26.988C49.0638 26.93 47.6525 26.8977 46.1814 26.8977C44.6402 26.8977 43.2915 26.93 41.6978 26.988C41.449 26.8083 41.449 26.0732 41.6978 25.9175L42.5278 25.7609C43.9078 25.5168 44.0893 25.3031 44.0893 22.4786V11.6146V11.6146ZM48.2974 15.5114C48.2974 16.5846 48.3886 16.6767 50.1997 16.6767C51.3107 16.6767 51.951 16.3976 52.5332 15.8182C53.0546 15.2986 53.6378 14.3138 53.6378 12.499C53.6378 9.73717 52.0136 7.95829 49.6203 7.95829C48.3564 7.95829 48.2974 8.04856 48.2974 9.52343V15.5114H48.2974Z" fill="#CE0E2D"/>
<path d="M67.8559 8.94089C67.8559 8.20024 67.8559 8.04915 67.1143 8.04915H65.2147C62.9771 8.04915 62.3341 9.27715 61.4091 11.5148C61.0407 11.7055 60.4566 11.641 60.2705 11.243C60.9117 9.1233 61.0683 7.22098 61.2829 6.02337C61.4091 5.92942 61.5667 5.86678 61.7168 5.86678C61.8688 5.86678 62.0227 5.90271 62.1443 5.99391C62.2963 6.51441 62.3893 6.63782 64.7209 6.63782H76.1404C78.1689 6.63782 78.6332 6.6056 78.9041 5.96442C79.0284 5.9027 79.1206 5.86678 79.302 5.86678C79.4854 5.86678 79.7065 5.99391 79.7645 6.0851C79.4632 7.13067 79.2459 9.61612 79.302 11.3665C79.1528 11.641 78.3182 11.7055 78.1689 11.4558C77.6503 9.49271 77.2145 8.04914 74.9152 8.04914H73.0699C72.3422 8.04914 72.2455 8.14034 72.2455 8.94088V22.4792C72.2455 25.3313 72.426 25.58 73.8115 25.7643L75.0349 25.9181C75.2569 26.0968 75.2569 26.809 75.0349 26.9877C73.0414 26.9296 71.514 26.8974 70.1303 26.8974C68.6554 26.8974 67.0553 26.9296 64.9097 26.9877C64.6619 26.809 64.6619 26.0968 64.9097 25.9181L66.2943 25.7643C67.6716 25.603 67.8558 25.3313 67.8558 22.4792V8.94089H67.8559Z" fill="#CE0E2D"/>
<path d="M85.5883 8.96615C85.5883 11.3835 83.6399 12.8896 81.4824 13.3825C81.0402 13.3309 80.9389 12.7579 81.2244 12.5737C82.1567 12.2393 83.4317 11.3835 83.4317 10.1619C83.4317 9.07302 82.6275 8.70637 81.9992 8.54975C81.5625 8.4208 81.2244 8.0044 81.2244 7.40376C81.2244 6.5249 82.0287 5.79531 83.0163 5.79531C84.0849 5.79532 85.5883 6.70642 85.5883 8.96615Z" fill="#CE0E2D"/>
<path d="M92.2322 27.3879C89.4095 27.3879 87.6546 26.5901 87.0144 26.2235C86.4303 25.5464 86.0342 23.3364 86.0342 21.2489C86.247 20.8509 86.9536 20.8196 87.1977 21.1549C87.8167 23.1567 89.8711 25.9775 92.4818 25.9775C94.748 25.9775 95.7955 24.4105 95.7955 22.8757C95.7955 20.3912 93.4592 18.9154 91.6187 17.9942C89.4095 16.8906 86.984 15.0481 86.984 12.0108C86.9536 8.54152 89.6583 6.15002 94.106 6.15002C95.1193 6.15002 96.3814 6.26792 97.6047 6.63827C98.0082 6.76078 98.2855 6.82159 98.6503 6.8833C98.9 7.55487 99.2068 9.21492 99.2068 11.2739C99.0511 11.6405 98.2855 11.6727 98.0083 11.366C97.4859 9.80174 96.164 7.55489 93.9595 7.55489C91.9309 7.55489 90.8236 8.87593 90.8236 10.4125C90.8236 11.8229 92.0783 13.1145 93.6195 13.915L95.6462 14.9864C97.5449 15.9988 99.9677 17.774 99.9677 21.1549C99.9677 24.9338 96.8705 27.3879 92.2322 27.3879Z" fill="#CE0E2D"/>
<path d="M111.971 11.6777C111.971 8.57778 111.914 8.26825 110.623 8.08492L109.798 7.96147C109.515 7.81315 109.458 6.88731 109.918 6.85785C112.254 6.70399 114.495 6.587 117.56 6.587C120.507 6.587 122.477 6.9168 123.822 7.71734C125.147 8.5188 125.944 9.80668 125.944 11.6159C125.944 14.1935 123.761 15.2096 122.809 15.4528C122.507 15.5146 122.2 15.6371 122.2 15.7928C122.2 15.8831 122.352 15.9724 122.629 16.0378C125.052 16.5638 127.108 18.1557 127.137 21.1331C127.171 23.9567 125.482 25.6139 123.549 26.2901C121.609 26.9672 119.312 27.0575 117.442 27.0575C116.334 27.0575 115.168 26.9341 114.277 26.9341C112.769 26.9341 111.265 26.9672 109.515 27.028C109.273 26.8438 109.273 26.0469 109.515 25.9483L110.408 25.7715C111.791 25.4923 111.971 25.2786 111.971 22.5168V11.6777H111.971ZM116.209 14.6587C116.209 15.4528 116.24 15.5146 117.838 15.5146C120.478 15.5146 121.459 13.826 121.459 11.9891C121.459 9.31198 119.803 7.99554 117.681 7.99554C116.24 7.99554 116.209 8.24336 116.209 9.5902V14.6587ZM116.209 21.7494C116.209 24.1428 116.517 25.6462 118.912 25.6462C121.184 25.6462 122.38 23.8949 122.38 21.4077C122.38 18.7379 120.85 16.8688 117.9 16.8688C116.209 16.8688 116.209 16.8936 116.209 18.1226V21.7494V21.7494Z" fill="#CE0E2D"/>
<path d="M135.157 14.6586C135.157 15.5144 135.187 15.5807 136.02 15.5807H138.138C139.731 15.5807 140.1 15.3624 140.407 13.8894L140.561 13.1248C140.776 12.876 141.542 12.876 141.698 13.1506C141.635 14.1353 141.605 15.2399 141.605 16.4016C141.605 17.5752 141.635 18.6751 141.698 19.6618C141.542 19.9391 140.776 19.9648 140.561 19.6885L140.407 18.9229C140.1 17.4508 139.731 17.2048 138.138 17.2048H136.02C135.187 17.2048 135.157 17.2343 135.157 18.1556V21.811C135.157 23.2195 135.28 24.2025 135.648 24.722C136.043 25.2785 136.63 25.5207 138.868 25.5207C141.542 25.5207 142.584 25.4314 144.271 21.9602C144.522 21.6267 145.288 21.7492 145.413 22.114C145.288 23.7105 144.548 26.1997 144.12 27.0278C142.495 26.967 139.55 26.9339 137.026 26.9339H133.034C131.566 26.9339 130.059 26.967 127.759 27.0278C127.511 26.8445 127.511 26.1057 127.759 25.9482L129.202 25.7372C130.584 25.5207 130.768 25.3401 130.768 22.5166V11.064C130.768 8.26809 130.584 8.08569 129.202 7.81299L128.433 7.65639C128.158 7.474 128.191 6.76742 128.497 6.58684C129.936 6.64765 131.443 6.67528 132.914 6.67528H139.424C141.387 6.67528 143.139 6.64765 143.536 6.58684C143.57 7.07141 143.781 9.28419 143.933 11.3422C143.815 11.6785 143.105 11.7411 142.802 11.4666C142.46 10.3906 142.033 9.46935 141.635 9.04098C141.05 8.45603 140.129 8.08569 138.625 8.08569H136.171C135.157 8.08569 135.157 8.14557 135.157 9.28419V14.6586V14.6586Z" fill="#CE0E2D"/>
<path d="M153.816 14.6586C153.816 15.5144 153.847 15.5807 154.677 15.5807H156.796C158.395 15.5807 158.762 15.3624 159.068 13.8894L159.222 13.1248C159.439 12.876 160.204 12.876 160.357 13.1506C160.299 14.1353 160.264 15.2399 160.264 16.4016C160.264 17.5752 160.299 18.6751 160.357 19.6618C160.204 19.9391 159.439 19.9648 159.222 19.6885L159.068 18.9229C158.762 17.4508 158.395 17.2048 156.796 17.2048H154.677C153.847 17.2048 153.816 17.2343 153.816 18.1556V21.811C153.816 23.2195 153.94 24.2025 154.311 24.722C154.705 25.2785 155.292 25.5207 157.531 25.5207C160.204 25.5207 161.246 25.4314 162.938 21.9602C163.18 21.6267 163.949 21.7492 164.07 22.114C163.949 23.7105 163.213 26.1997 162.78 27.0278C161.158 26.967 158.21 26.9339 155.693 26.9339H151.701C150.225 26.9339 148.727 26.967 146.423 27.0278C146.178 26.8445 146.178 26.1057 146.423 25.9482L147.862 25.7372C149.245 25.5207 149.429 25.3401 149.429 22.5166V11.064C149.429 8.26809 149.245 8.08569 147.862 7.81299L147.099 7.65639C146.821 7.474 146.851 6.76742 147.157 6.58684C148.601 6.64765 150.109 6.67528 151.576 6.67528H158.083C160.054 6.67528 161.796 6.64765 162.198 6.58684C162.225 7.07141 162.448 9.28419 162.599 11.3422C162.475 11.6785 161.774 11.7411 161.464 11.4666C161.125 10.3906 160.695 9.46935 160.299 9.04098C159.71 8.45603 158.791 8.08569 157.29 8.08569H154.833C153.816 8.08569 153.816 8.14557 153.816 9.28419V14.6586V14.6586Z" fill="#CE0E2D"/>
<path d="M171.59 27.4293C168.765 27.4293 167.013 26.6315 166.372 26.2603C165.788 25.5841 165.387 23.3713 165.387 21.2903C165.605 20.8886 166.311 20.8591 166.557 21.1963C167.168 23.188 169.226 26.0116 171.839 26.0116C174.104 26.0116 175.15 24.4501 175.15 22.9153C175.15 20.4243 172.817 18.9568 170.977 18.0301C168.765 16.9218 166.341 15.0812 166.341 12.0486C166.311 8.5774 169.009 6.18407 173.464 6.18407C174.477 6.18407 175.733 6.30473 176.96 6.676C177.363 6.7976 177.638 6.85748 178.005 6.91736C178.251 7.59356 178.555 9.25452 178.555 11.3134C178.405 11.6782 177.638 11.7123 177.363 11.4037C176.839 9.83948 175.522 7.59356 173.31 7.59356C171.283 7.59356 170.177 8.9155 170.177 10.4521C170.177 11.8616 171.439 13.1504 172.973 13.9491L174.998 15.026C176.905 16.0347 179.327 17.8191 179.327 21.1963C179.327 24.9696 176.224 27.4293 171.59 27.4293Z" fill="#CE0E2D"/>
<path d="M181.817 6.14816C182.435 6.14816 182.953 6.37021 183.37 6.81238C183.787 7.25365 184 7.77229 184 8.36742C184 8.77644 183.896 9.15691 183.688 9.50697C183.48 9.84965 183.21 10.1122 182.875 10.302C182.542 10.4862 182.189 10.5811 181.817 10.5811C181.203 10.5811 180.686 10.3563 180.267 9.91507C179.851 9.47473 179.639 8.95791 179.639 8.36742C179.639 7.951 179.741 7.56961 179.948 7.22233C180.156 6.87594 180.427 6.61339 180.761 6.4273C181.095 6.24214 181.448 6.14816 181.817 6.14816ZM181.817 6.5185C181.299 6.5185 180.86 6.70644 180.503 7.09152C180.171 7.44709 180.004 7.87177 180.004 8.36742C180.004 8.8971 180.193 9.34298 180.574 9.70778C180.924 10.045 181.34 10.2126 181.817 10.2126C182.335 10.2126 182.773 10.021 183.135 9.63409C183.469 9.28403 183.636 8.85934 183.636 8.3674C183.636 7.83493 183.445 7.38998 183.063 7.02518C182.713 6.68616 182.298 6.5185 181.817 6.5185ZM180.927 9.54197V7.15691H181.737C182.014 7.15691 182.21 7.1781 182.328 7.21865C182.447 7.26288 182.544 7.33748 182.621 7.44251C182.696 7.55027 182.737 7.6682 182.737 7.79901C182.737 7.98324 182.674 8.138 182.552 8.26331C182.427 8.38583 182.265 8.45493 182.071 8.46874C182.157 8.51021 182.227 8.5535 182.278 8.60785C182.378 8.71196 182.489 8.86486 182.615 9.07307L182.896 9.54197H182.438L182.227 9.16426C182.065 8.87776 181.939 8.6926 181.844 8.61337C181.769 8.55349 181.667 8.52493 181.534 8.52493H181.308V9.54196H180.927V9.54197ZM181.308 8.19696H181.769C181.976 8.19696 182.123 8.16656 182.206 8.103C182.293 8.04129 182.338 7.95285 182.338 7.83215C182.338 7.75753 182.312 7.68936 182.269 7.63502C182.227 7.5779 182.17 7.53646 182.104 7.51619C182.036 7.49037 181.912 7.47839 181.737 7.47839H181.308V8.19696H181.308Z" fill="#CE0E2D"/>
<path d="M153.92 39.7701C154.414 39.7701 154.829 39.9477 155.162 40.3014C155.496 40.6544 155.667 41.0694 155.667 41.5455C155.667 41.8727 155.583 42.177 155.417 42.4571C155.251 42.7312 155.034 42.9413 154.767 43.0931C154.5 43.2405 154.218 43.3164 153.92 43.3164C153.429 43.3164 153.016 43.1366 152.68 42.7836C152.347 42.4313 152.178 42.0179 152.178 41.5455C152.178 41.2123 152.26 40.9072 152.425 40.6294C152.591 40.3523 152.809 40.1422 153.075 39.9934C153.343 39.8452 153.625 39.7701 153.92 39.7701ZM153.92 40.0663C153.506 40.0663 153.155 40.2167 152.869 40.5247C152.604 40.8092 152.47 41.1489 152.47 41.5455C152.47 41.9692 152.621 42.3259 152.926 42.6178C153.206 42.8875 153.539 43.0216 153.92 43.0216C154.335 43.0216 154.685 42.8683 154.975 42.5588C155.242 42.2788 155.375 41.939 155.375 41.5455C155.375 41.1195 155.223 40.7635 154.917 40.4717C154.637 40.2005 154.305 40.0663 153.92 40.0663ZM153.208 42.4851V40.5771H153.857C154.078 40.5771 154.235 40.594 154.329 40.6264C154.424 40.6618 154.501 40.7215 154.563 40.8055C154.624 40.8917 154.656 40.9861 154.656 41.0907C154.656 41.2381 154.606 41.3619 154.508 41.4622C154.408 41.5602 154.279 41.6155 154.123 41.6265C154.192 41.6597 154.248 41.6943 154.289 41.7378C154.369 41.8211 154.458 41.9434 154.559 42.11L154.784 42.4851H154.417L154.248 42.1829C154.118 41.9537 154.018 41.8056 153.942 41.7422C153.882 41.6943 153.801 41.6715 153.694 41.6715H153.513V42.4851H153.208V42.4851ZM153.513 41.4091H153.882C154.047 41.4091 154.165 41.3848 154.232 41.3339C154.301 41.2846 154.337 41.2138 154.337 41.1173C154.337 41.0576 154.316 41.003 154.282 40.9595C154.248 40.9139 154.203 40.8807 154.15 40.8645C154.095 40.8438 153.997 40.8342 153.857 40.8342H153.513V41.4091H153.513Z" fill="#483729"/>
<path d="M37.2748 40.1617H30.8198V41.3842H33.379V48.1386H34.7157V41.3842H37.2748V40.1617Z" fill="#483729"/>
<path d="M43.4317 45.3453L45.4004 48.1384H46.9582L44.7933 45.1039L44.8559 45.0864C46.0766 44.7372 46.7481 43.8851 46.7481 42.6857V42.6636C46.7481 41.9865 46.5215 41.395 46.0922 40.9556C45.5625 40.436 44.7684 40.1615 43.7975 40.1615H40.2471V48.1384H41.5727V45.3268H43.417L43.4317 45.3453ZM41.5727 41.361H43.6823C44.774 41.361 45.3995 41.8649 45.3995 42.7446V42.7667C45.3995 43.6143 44.7297 44.1615 43.6934 44.1615H41.5727V41.361Z" fill="#483729"/>
<path d="M53.0523 48.2656C55.2282 48.2656 56.4755 46.963 56.4755 44.6922V40.1616H55.1499V44.7613C55.1499 46.2187 54.3936 47.0551 53.0753 47.0551C51.7487 47.0551 50.9887 46.1984 50.9887 44.7042V40.1616H49.6631V44.7613C49.6631 46.9879 50.8984 48.2656 53.0523 48.2656Z" fill="#483729"/>
<path d="M65.1535 44.704V43.5286H61.1076V41.3388H65.6722V40.1615H59.781V48.1393H65.7293V46.9629H61.1076V44.704H65.1535Z" fill="#483729"/>
<path d="M79.6645 40.1617H73.2095V41.3842H75.7686V48.1386H77.1053V41.3842H79.6645V40.1617Z" fill="#483729"/>
<path d="M85.7136 48.2774C88.06 48.2774 89.8978 46.4644 89.8978 44.1503V44.1273C89.8978 41.7874 88.1097 40.0232 85.7367 40.0232C83.3903 40.0232 81.5525 41.8362 81.5525 44.1503V44.1734C81.5525 46.5133 83.3415 48.2774 85.7136 48.2774ZM82.9482 44.1273C82.9482 42.4774 84.1374 41.2337 85.7136 41.2337C87.2779 41.2337 88.5031 42.5151 88.5031 44.1503V44.1734C88.5031 45.8232 87.3138 47.066 85.7367 47.066C84.1734 47.066 82.9482 45.7855 82.9482 44.1503V44.1273Z" fill="#483729"/>
<path d="M103.463 48.1388H104.582V40.1619H103.279V45.8302L103.197 45.7233L98.8881 40.1619H97.6426V48.1388H98.9452V42.3093L99.0281 42.4161L103.463 48.1388Z" fill="#483729"/>
<path d="M112.945 46.1907L113.764 48.1391H115.162L111.651 40.1042H110.397L106.887 48.1391H108.239L109.069 46.1907H112.945ZM111.001 41.6362L111.044 41.7348L112.466 45.0263H109.549L111.001 41.6362Z" fill="#483729"/>
<path d="M122.654 40.1617H116.199V41.3842H118.758V48.1386H120.095V41.3842H122.654V40.1617Z" fill="#483729"/>
<path d="M128.485 48.2656C130.661 48.2656 131.908 46.963 131.908 44.6922V40.1616H130.583V44.7613C130.583 46.2187 129.826 47.0551 128.508 47.0551C127.181 47.0551 126.421 46.1984 126.421 44.7042V40.1616H125.096V44.7613C125.096 46.9879 126.331 48.2656 128.485 48.2656Z" fill="#483729"/>
<path d="M137.997 45.3453L139.965 48.1384H141.523L139.358 45.1039L139.421 45.0864C140.642 44.7372 141.313 43.8851 141.313 42.6857V42.6636C141.313 41.9865 141.086 41.395 140.658 40.9556C140.128 40.436 139.333 40.1615 138.362 40.1615H134.812V48.1384H136.138V45.3268H137.982L137.997 45.3453ZM136.138 41.361H138.247C139.339 41.361 139.964 41.8649 139.964 42.7446V42.7667C139.964 43.6143 139.295 44.1615 138.258 44.1615H136.138V41.361V41.361Z" fill="#483729"/>
<path d="M149.784 44.704V43.5286H145.738V41.3388H150.303V40.1615H144.412V48.1393H150.36V46.9629H145.738V44.704H149.784Z" fill="#483729"/>
</g>
<defs>
<clipPath id="clip0_3127:27021">
<rect width="184" height="48.2774" fill="white"/>
</clipPath>
</defs>
</svg>
