<svg width="28" height="28" viewBox="0 0 28 28" fill="none" xmlns="http://www.w3.org/2000/svg">
<path d="M21 6.99998H18.6667C18.6667 4.42165 16.5784 2.33331 14 2.33331C11.4217 2.33331 9.33335 4.42165 9.33335 6.99998H7.00002C5.71669 6.99998 4.66669 8.04998 4.66669 9.33331V23.3333C4.66669 24.6166 5.71669 25.6666 7.00002 25.6666H21C22.2834 25.6666 23.3334 24.6166 23.3334 23.3333V9.33331C23.3334 8.04998 22.2834 6.99998 21 6.99998ZM14 4.66665C15.2834 4.66665 16.3334 5.71665 16.3334 6.99998H11.6667C11.6667 5.71665 12.7167 4.66665 14 4.66665ZM21 23.3333H7.00002V9.33331H9.33335V11.6666C9.33335 12.3083 9.85835 12.8333 10.5 12.8333C11.1417 12.8333 11.6667 12.3083 11.6667 11.6666V9.33331H16.3334V11.6666C16.3334 12.3083 16.8584 12.8333 17.5 12.8333C18.1417 12.8333 18.6667 12.3083 18.6667 11.6666V9.33331H21V23.3333Z" fill="white"/>
</svg>
