<?xml version="1.0" encoding="utf-8"?>
<!-- Generated by IcoMoon.io -->
<!DOCTYPE svg PUBLIC "-//W3C//DTD SVG 1.1//EN" "http://www.w3.org/Graphics/SVG/1.1/DTD/svg11.dtd">
<svg version="1.1" xmlns="http://www.w3.org/2000/svg" xmlns:xlink="http://www.w3.org/1999/xlink" width="512" height="512" viewBox="0 0 512 512">
<g id="icomoon-ignore">
</g>
<path fill="#493728" d="M453.485 121.418c-1.462-2.925-2.925-4.389-5.851-5.852-7.315-7.314-19.017-13.166-30.72-13.166h-45.349c-7.315-61.44-52.663-102.4-115.566-102.4s-108.251 40.959-115.566 102.4h-45.349c-24.868 0-43.886 19.017-43.886 43.886v321.828c0 24.868 19.017 43.886 43.886 43.886h321.828c11.702 0 23.406-4.389 30.72-13.166 1.462-1.462 4.389-4.389 5.851-5.851 4.389-7.315 7.315-16.091 7.315-24.868v-321.828c0-8.777-2.925-17.554-7.315-24.868zM256 29.258c52.663 0 80.457 35.108 86.308 73.143h-172.617c5.851-38.035 33.645-73.142 86.309-73.142zM402.286 453.485h-292.57v-292.57h292.57v292.57z"></path>
</svg>
