<?xml version="1.0" standalone="no"?>
<!DOCTYPE svg PUBLIC "-//W3C//DTD SVG 20010904//EN"
 "http://www.w3.org/TR/2001/REC-SVG-20010904/DTD/svg10.dtd">
<svg version="1.0" xmlns="http://www.w3.org/2000/svg"
 width="40.000000pt" height="40.000000pt" viewBox="0 0 40.000000 40.000000"
 preserveAspectRatio="xMidYMid meet">

<g transform="translate(0.000000,40.000000) scale(0.100000,-0.100000)"
fill="#000000" stroke="none">
<path d="M105 280 c-3 -5 0 -13 8 -16 23 -9 177 0 180 11 3 14 -179 19 -188 5z"/>
<path d="M55 210 c-3 -5 0 -12 7 -15 25 -10 283 0 283 10 0 14 -281 19 -290 5z"/>
<path d="M105 140 c-3 -5 0 -13 8 -16 23 -9 177 0 180 11 3 14 -179 19 -188 5z"/>
</g>
</svg>
