<?xml version="1.0" encoding="utf-8"?>
<!-- Generated by IcoMoon.io -->
<!DOCTYPE svg PUBLIC "-//W3C//DTD SVG 1.1//EN" "http://www.w3.org/Graphics/SVG/1.1/DTD/svg11.dtd">
<svg version="1.1" xmlns="http://www.w3.org/2000/svg" xmlns:xlink="http://www.w3.org/1999/xlink" width="512" height="512" viewBox="0 0 512 512">
<g id="icomoon-ignore">
</g>
<path fill="#493728" d="M500.229 456.092l-113.287-113.287c25.012-35.31 39.724-77.977 39.724-123.587 0-117.701-95.632-213.333-213.333-213.333s-213.333 95.632-213.333 213.333 95.632 213.333 213.333 213.333c50.023 0 97.103-17.655 133.885-47.081l111.816 111.816c5.885 5.885 13.242 8.827 20.598 8.827s14.713-2.942 20.598-8.827c11.769-11.769 11.769-29.425 0-41.195zM213.333 373.702c-85.334 0-154.482-69.149-154.482-154.482s69.149-154.482 154.482-154.482 154.482 69.149 154.482 154.482-69.149 154.482-154.482 154.482z"></path>
</svg>
