<svg width="28" height="28" viewBox="0 0 28 28" fill="none" xmlns="http://www.w3.org/2000/svg">
<path d="M14 2.33331C7.55998 2.33331 2.33331 7.55998 2.33331 14C2.33331 20.44 7.55998 25.6666 14 25.6666C20.44 25.6666 25.6666 20.44 25.6666 14C25.6666 7.55998 20.44 2.33331 14 2.33331ZM8.24831 21.3266C8.74998 20.2766 11.8066 19.25 14 19.25C16.1933 19.25 19.2616 20.2766 19.7516 21.3266C18.165 22.5866 16.17 23.3333 14 23.3333C11.83 23.3333 9.83498 22.5866 8.24831 21.3266ZM21.42 19.635C19.7516 17.605 15.7033 16.9166 14 16.9166C12.2966 16.9166 8.24831 17.605 6.57998 19.635C5.38998 18.0716 4.66665 16.1233 4.66665 14C4.66665 8.85498 8.85498 4.66665 14 4.66665C19.145 4.66665 23.3333 8.85498 23.3333 14C23.3333 16.1233 22.61 18.0716 21.42 19.635V19.635ZM14 6.99998C11.7366 6.99998 9.91665 8.81998 9.91665 11.0833C9.91665 13.3466 11.7366 15.1666 14 15.1666C16.2633 15.1666 18.0833 13.3466 18.0833 11.0833C18.0833 8.81998 16.2633 6.99998 14 6.99998ZM14 12.8333C13.0316 12.8333 12.25 12.0516 12.25 11.0833C12.25 10.115 13.0316 9.33331 14 9.33331C14.9683 9.33331 15.75 10.115 15.75 11.0833C15.75 12.0516 14.9683 12.8333 14 12.8333Z" fill="white"/>
</svg>
